<svg width="34" height="34" viewBox="0 0 34 34" fill="none" xmlns="http://www.w3.org/2000/svg">
<path fill-rule="evenodd" clip-rule="evenodd" d="M23.8957 22.9298L23.8955 22.9294C23.7688 22.5953 23.6383 22.2514 23.592 22.1262C23.576 22.083 23.5605 22.0409 23.5456 22H28.6673C31.7833 22 33.6673 19.8041 33.6673 17C33.6673 7.09404 31.5926 0.333325 27.0007 0.333325C27.0007 0.333325 15.3726 0.3337 15.3322 0.332846C14.2354 0.313176 12.8431 0.467404 11.4392 0.969691C10.8257 1.18918 10.2614 1.46227 9.75555 1.78949C9.15538 0.91039 8.14541 0.333325 7.00065 0.333325H3.66732C1.82637 0.333325 0.333984 1.82571 0.333984 3.66666V18.6667C0.333984 20.5076 1.82637 22 3.66732 22H7.00065C7.33125 22 7.6506 21.9519 7.95209 21.8622C9.11358 23.5535 12.0517 26.9108 14.4123 29.6083C15.6923 31.0709 16.8025 32.3396 17.3678 33.0435L17.8681 33.6667H18.6801C19.692 33.6668 20.5711 33.59 21.5811 33.2959C23.8204 32.6438 25.334 31.12 25.334 28.6667C25.334 27.7998 25.1805 26.8756 24.8977 25.8498C24.7106 25.1711 24.4793 24.4857 24.1624 23.6352C24.1171 23.5135 24.0079 23.2256 23.8957 22.9298ZM10.334 18.6667V6.99999C10.334 5.49627 11.0873 4.63587 12.5621 4.10819C13.5184 3.76605 14.5429 3.65256 15.2766 3.66567C21.1211 3.66637 22.8391 3.66657 24.5571 3.66663L27.0007 3.66666C28.6925 3.66666 30.334 9.01542 30.334 17C30.334 18.0668 29.8194 18.6667 28.6673 18.6667H22.0007C20.0097 18.6667 19.5932 20.2061 20.0084 21.8728C20.1061 22.2649 20.2489 22.6964 20.4656 23.2824C20.5176 23.4231 20.6583 23.7939 20.7895 24.1396L20.7895 24.1398L20.7896 24.14L20.7904 24.142C20.8977 24.4248 20.9984 24.6903 21.0389 24.7989C21.3247 25.566 21.5276 26.1674 21.6842 26.7356C21.8939 27.4961 22.0007 28.139 22.0007 28.6667C22.0007 29.4183 21.6043 29.8173 20.6492 30.0954C20.2479 30.2123 19.853 30.2767 19.4339 30.3081C18.5572 29.26 17.3017 27.8277 16.0094 26.3533L16.0087 26.3525L16.0084 26.3522L16.0084 26.3521L16.0083 26.352C13.5038 23.4946 10.8614 20.48 10.5702 19.8C10.408 19.4215 10.334 19.067 10.334 18.6667ZM3.66732 18.6667V3.66666H7.00065V18.6667H3.66732Z" fill="#1C3554"/>
</svg>
