<svg width="17" height="15" viewBox="0 0 17 15" fill="none" xmlns="http://www.w3.org/2000/svg">
<path d="M8.35682 10.6747C8.37383 10.6951 8.39556 10.7116 8.42036 10.7229C8.44517 10.7342 8.4724 10.7401 8.5 10.7401C8.5276 10.7401 8.55483 10.7342 8.57964 10.7229C8.60444 10.7116 8.62617 10.6951 8.64318 10.6747L11.1886 7.65554C11.2818 7.54474 11.1977 7.38068 11.0455 7.38068H9.36136V0.170455C9.36136 0.0767045 9.27955 0 9.17955 0H7.81591C7.71591 0 7.63409 0.0767045 7.63409 0.170455V7.37855H5.95455C5.80227 7.37855 5.71818 7.54261 5.81136 7.65341L8.35682 10.6747ZM16.8182 9.92898H15.4545C15.3545 9.92898 15.2727 10.0057 15.2727 10.0994V13.3807H1.72727V10.0994C1.72727 10.0057 1.64545 9.92898 1.54545 9.92898H0.181818C0.0818182 9.92898 0 10.0057 0 10.0994V14.3182C0 14.6953 0.325 15 0.727273 15H16.2727C16.675 15 17 14.6953 17 14.3182V10.0994C17 10.0057 16.9182 9.92898 16.8182 9.92898Z" fill="#00306B"/>
</svg>
