<svg width="32" height="31" viewBox="0 0 32 31" fill="none" xmlns="http://www.w3.org/2000/svg">
<circle cx="16.058" cy="15.6668" r="15.2049" fill="#00306B"/>
<g clip-path="url(#clip0_127_107)">
<path d="M24.3516 15.6669C24.3516 11.0864 20.6385 7.37329 16.058 7.37329C11.4776 7.37329 7.76447 11.0864 7.76447 15.6669C7.76447 19.8064 10.7973 23.2375 14.7622 23.8597V18.0642H12.6564V15.6669H14.7622V13.8397C14.7622 11.7611 16.0004 10.613 17.8948 10.613C18.8019 10.613 19.7513 10.775 19.7513 10.775V12.8159H18.7055C17.6753 12.8159 17.3539 13.4553 17.3539 14.1118V15.6669H19.6541L19.2864 18.0642H17.3539V23.8597C21.3188 23.2375 24.3516 19.8064 24.3516 15.6669Z" fill="white"/>
</g>
<defs>
<clipPath id="clip0_127_107">
<rect width="16.5871" height="16.5871" fill="white" transform="translate(7.76447 7.37329)"/>
</clipPath>
</defs>
</svg>
