<svg width="32" height="31" viewBox="0 0 32 31" fill="none" xmlns="http://www.w3.org/2000/svg">
<circle cx="15.9938" cy="15.6668" r="15.2049" fill="#00306B"/>
<g clip-path="url(#clip0_127_115)">
<path d="M15.9938 8.86678C18.2097 8.86678 18.4721 8.8765 19.3436 8.91538C20.1535 8.95101 20.5909 9.08708 20.8824 9.20047C21.268 9.34949 21.5466 9.53092 21.8349 9.81925C22.1265 10.1108 22.3047 10.3862 22.4537 10.7717C22.5671 11.0633 22.7031 11.5039 22.7388 12.3106C22.7777 13.1853 22.7874 13.4477 22.7874 15.6604C22.7874 17.8763 22.7777 18.1387 22.7388 19.0102C22.7031 19.8201 22.5671 20.2575 22.4537 20.5491C22.3047 20.9346 22.1232 21.2132 21.8349 21.5015C21.5433 21.7931 21.268 21.9713 20.8824 22.1203C20.5909 22.2337 20.1503 22.3698 19.3436 22.4054C18.4689 22.4443 18.2065 22.454 15.9938 22.454C13.7778 22.454 13.5154 22.4443 12.6439 22.4054C11.834 22.3698 11.3967 22.2337 11.1051 22.1203C10.7196 21.9713 10.441 21.7899 10.1526 21.5015C9.86106 21.21 9.68288 20.9346 9.53385 20.5491C9.42046 20.2575 9.2844 19.8169 9.24876 19.0102C9.20989 18.1355 9.20017 17.8731 9.20017 15.6604C9.20017 13.4444 9.20989 13.182 9.24876 12.3106C9.2844 11.5006 9.42046 11.0633 9.53385 10.7717C9.68288 10.3862 9.8643 10.1076 10.1526 9.81925C10.4442 9.52768 10.7196 9.34949 11.1051 9.20047C11.3967 9.08708 11.8373 8.95101 12.6439 8.91538C13.5154 8.8765 13.7778 8.86678 15.9938 8.86678ZM15.9938 7.37329C13.7422 7.37329 13.4603 7.38301 12.5759 7.42189C11.6947 7.46076 11.0889 7.60331 10.5641 7.80741C10.0166 8.02123 9.55329 8.30308 9.09326 8.76635C8.62998 9.22639 8.34813 9.68966 8.13431 10.2339C7.93021 10.762 7.78767 11.3646 7.74879 12.2458C7.70991 13.1334 7.7002 13.4153 7.7002 15.6669C7.7002 17.9184 7.70991 18.2003 7.74879 19.0847C7.78767 19.9659 7.93021 20.5717 8.13431 21.0966C8.34813 21.6441 8.62998 22.1073 9.09326 22.5674C9.55329 23.0274 10.0166 23.3125 10.5608 23.5231C11.0889 23.7272 11.6915 23.8697 12.5727 23.9086C13.4571 23.9475 13.739 23.9572 15.9905 23.9572C18.2421 23.9572 18.524 23.9475 19.4084 23.9086C20.2896 23.8697 20.8954 23.7272 21.4202 23.5231C21.9645 23.3125 22.4278 23.0274 22.8878 22.5674C23.3478 22.1073 23.6329 21.6441 23.8435 21.0998C24.0476 20.5717 24.1902 19.9692 24.229 19.088C24.2679 18.2035 24.2776 17.9217 24.2776 15.6701C24.2776 13.4185 24.2679 13.1367 24.229 12.2522C24.1902 11.3711 24.0476 10.7652 23.8435 10.2404C23.6394 9.68966 23.3576 9.22639 22.8943 8.76635C22.4342 8.30632 21.971 8.02123 21.4267 7.81065C20.8986 7.60655 20.2961 7.464 19.4149 7.42513C18.5272 7.38301 18.2453 7.37329 15.9938 7.37329Z" fill="white"/>
<path d="M15.9938 11.4066C13.6418 11.4066 11.7336 13.3148 11.7336 15.6668C11.7336 18.0188 13.6418 19.927 15.9938 19.927C18.3458 19.927 20.254 18.0188 20.254 15.6668C20.254 13.3148 18.3458 11.4066 15.9938 11.4066ZM15.9938 18.4302C14.4679 18.4302 13.2303 17.1927 13.2303 15.6668C13.2303 14.1409 14.4679 12.9033 15.9938 12.9033C17.5197 12.9033 18.7572 14.1409 18.7572 15.6668C18.7572 17.1927 17.5197 18.4302 15.9938 18.4302Z" fill="white"/>
<path d="M21.417 11.2382C21.417 11.789 20.9699 12.2328 20.4224 12.2328C19.8717 12.2328 19.4278 11.7857 19.4278 11.2382C19.4278 10.6875 19.8749 10.2437 20.4224 10.2437C20.9699 10.2437 21.417 10.6907 21.417 11.2382Z" fill="white"/>
</g>
<defs>
<clipPath id="clip0_127_115">
<rect width="16.5871" height="16.5871" fill="white" transform="translate(7.7002 7.37329)"/>
</clipPath>
</defs>
</svg>
