<svg width="34" height="34" viewBox="0 0 34 34" fill="none" xmlns="http://www.w3.org/2000/svg">
<path fill-rule="evenodd" clip-rule="evenodd" d="M33.6673 16.9985C33.6673 14.1944 31.7833 11.9985 28.6673 11.9985H23.5456C23.5605 11.9576 23.576 11.9155 23.592 11.8723C23.6383 11.747 23.7689 11.4028 23.8957 11.0686C24.0079 10.7729 24.1171 10.485 24.1624 10.3634C24.4793 9.51277 24.7106 8.82745 24.8977 8.14873C25.1805 7.1229 25.334 6.1987 25.334 5.33185C25.334 2.8785 23.8204 1.35471 21.5811 0.702658C20.5711 0.408561 19.692 0.331694 18.6673 0.331848H17.8681L17.3678 0.954988C16.8025 1.65891 15.6923 2.92756 14.4123 4.39018C12.0511 7.08838 9.11215 10.4467 7.95124 12.1375C7.65 12.048 7.33094 12 7.00065 12H3.66732C1.82637 12 0.333984 13.4924 0.333984 15.3333V30.3333C0.333984 32.1743 1.82637 33.6667 3.66732 33.6667H7.00065C8.14586 33.6667 9.15617 33.0892 9.75626 32.2095C10.2619 32.5365 10.826 32.8094 11.4392 33.0288C12.8431 33.5311 14.2354 33.6853 15.3913 33.6642L27.0007 33.6652C31.5926 33.6652 33.6673 26.9045 33.6673 16.9985ZM12.5621 29.8903C11.0873 29.3626 10.334 28.5022 10.334 26.9985V15.3333V15.3318C10.334 14.9315 10.408 14.577 10.5702 14.1985C10.8614 13.5185 13.5039 10.5038 16.0084 7.64632C17.3011 6.17157 18.557 4.73873 19.4339 3.6904C19.853 3.72183 20.2479 3.78623 20.6492 3.90307C21.6043 4.18118 22.0007 4.58023 22.0007 5.33185C22.0007 5.85948 21.8939 6.50237 21.6842 7.26286C21.5276 7.83114 21.3247 8.43246 21.0389 9.19962C20.9983 9.30847 20.8971 9.57512 20.7895 9.8587C20.6584 10.2044 20.5176 10.5754 20.4656 10.7161C20.2489 11.3021 20.1061 11.7336 20.0084 12.1257C19.5932 13.7924 20.0097 15.3318 22.0007 15.3318H28.6673C29.8194 15.3318 30.334 15.9317 30.334 16.9985C30.334 24.9831 28.6925 30.3319 27.0007 30.3319H15.334L15.2724 30.3329C14.5429 30.3459 13.5184 30.2325 12.5621 29.8903ZM3.66732 30.3333V15.3333H7.00065V30.3333H3.66732Z" fill="#1C3554"/>
</svg>
