<svg width="31" height="31" viewBox="0 0 31 31" fill="none" xmlns="http://www.w3.org/2000/svg">
<circle cx="15.5259" cy="15.6668" r="15.2049" fill="#00306B"/>
<g clip-path="url(#clip0_127_111)">
<path d="M12.4505 22.4054C18.7082 22.4054 22.1319 17.2197 22.1319 12.724C22.1319 12.5782 22.1287 12.4291 22.1222 12.2834C22.7882 11.8017 23.363 11.2051 23.8195 10.5216C23.1992 10.7976 22.5406 10.9778 21.8663 11.0562C22.5763 10.6306 23.108 9.96193 23.3627 9.17424C22.6947 9.57012 21.9642 9.84937 21.2025 10C20.6892 9.4547 20.0106 9.09362 19.2716 8.97263C18.5326 8.85164 17.7743 8.97747 17.1139 9.33067C16.4536 9.68387 15.928 10.2448 15.6184 10.9266C15.3088 11.6085 15.2325 12.3734 15.4012 13.103C14.0486 13.0351 12.7254 12.6838 11.5173 12.0717C10.3093 11.4596 9.24331 10.6005 8.38857 9.55005C7.95415 10.299 7.82121 11.1854 8.01679 12.0288C8.21236 12.8723 8.72176 13.6097 9.44147 14.0911C8.90115 14.0739 8.37268 13.9285 7.8997 13.6667V13.7088C7.89922 14.4948 8.17095 15.2568 8.66871 15.8651C9.16648 16.4734 9.85954 16.8906 10.6301 17.0457C10.1296 17.1826 9.60428 17.2026 9.09482 17.104C9.31226 17.78 9.73531 18.3712 10.3049 18.7952C10.8746 19.2192 11.5624 19.4547 12.2723 19.469C11.067 20.4157 9.57815 20.9293 8.04549 20.9268C7.77368 20.9264 7.50215 20.9097 7.23233 20.8769C8.78935 21.8758 10.6006 22.4064 12.4505 22.4054Z" fill="white"/>
</g>
<defs>
<clipPath id="clip0_127_111">
<rect width="16.5871" height="16.5871" fill="white" transform="translate(7.23233 7.37329)"/>
</clipPath>
</defs>
</svg>
